<?xml version="1.0" encoding="utf-8"?>
<!-- Generator: Adobe Illustrator 27.3.1, SVG Export Plug-In . SVG Version: 6.00 Build 0)  -->
<svg version="1.1" id="Layer_1" xmlns="http://www.w3.org/2000/svg" xmlns:xlink="http://www.w3.org/1999/xlink" x="0px" y="0px"
	 viewBox="0 0 150 150" style="enable-background:new 0 0 150 150;" xml:space="preserve">
<style type="text/css">
	.st0{fill:#822619;stroke:#FFFFFF;stroke-miterlimit:10;}
	.st1{fill:#0B6D6D;stroke:#FFFFFF;stroke-miterlimit:10;}
	.st2{fill:#FFFFFF;stroke:#000000;stroke-miterlimit:10;}
</style>
<g>
	<path class="st0" d="M82.5,23.7c22.7,3.4,40.6,21.3,44,44h20.3c-3.7-34-30.6-60.9-64.3-64.3V23.7z"/>
	<path class="st0" d="M23.1,67.5c3.4-22.7,21.3-40.6,44-44v-20C33.2,6.9,6.3,33.8,2.8,67.5H23.1z"/>
	<path class="st0" d="M126.6,83.1c-3.4,22.7-21.3,40.6-44,44v20.3c33.7-3.7,60.6-30.6,64.3-64.3H126.6z"/>
	<path class="st0" d="M66.9,127.1c-22.7-3.4-40.6-21.3-44-44h-20c3.4,33.7,30.3,60.6,64.1,64.3V127.1z"/>
</g>
<circle class="st1" cx="74.8" cy="75.4" r="48.2"/>
<g>
	<path class="st2" d="M96.8,69.7v11.5c0,0.2-0.2,0.5-0.5,0.5h-2v16.6H76.3V81.7H52.8V52.6h18.1v16.6h5.4V52.6h18.1v16.6h2
		C96.6,69.2,96.8,69.4,96.8,69.7z"/>
</g>
</svg>
