<?xml version="1.0" encoding="utf-8"?>
<!-- Generator: Adobe Illustrator 27.3.1, SVG Export Plug-In . SVG Version: 6.00 Build 0)  -->
<svg version="1.1" id="Layer_1" xmlns="http://www.w3.org/2000/svg" xmlns:xlink="http://www.w3.org/1999/xlink" x="0px" y="0px"
	 viewBox="0 0 304 60" style="enable-background:new 0 0 304 60;" xml:space="preserve">
<style type="text/css">
	.st0{fill:#822619;stroke:#000000;stroke-width:2;stroke-miterlimit:10;}
	.st1{fill:#1B6568;stroke:#000000;stroke-width:2;stroke-miterlimit:10;}
	.st2{fill:#FFFFFF;stroke:#000000;stroke-width:2;stroke-miterlimit:10;}
</style>
<g>
	<path class="st0" d="M269.8,8.7c-2.2,0-4.4,0.3-6.4,0.9c8.1,2.3,13.2,9,13.2,17.1c0,10.3-7,19.6-17,22.4c2,0.6,4.2,0.9,6.5,0.9
		c13.3,0,23.4-11,23.4-23.3C289.5,16.6,281.5,8.7,269.8,8.7z"/>
</g>
<g>
	<path class="st1" d="M259.7,8.7c-2.2,0-4.4,0.3-6.4,0.9c8.1,2.3,13.2,9,13.2,17.1c0,10.3-7,19.6-17,22.4c2,0.6,4.2,0.9,6.5,0.9
		c13.3,0,23.4-11,23.4-23.3C279.4,16.6,271.4,8.7,259.7,8.7z"/>
</g>
<g>
	<path class="st2" d="M44.6,49.5c-0.4-0.6-1.2-0.8-1.8-0.6c-2.5,0.9-5.2,1.5-8,1.5c-11.9,0-20.2-8-20.2-18.3
		c0-12.6,10.3-23.8,23.8-23.8c11.9,0,20.2,8,20.2,18.3c0,5.5-2.1,10.9-5.6,15c-0.5,0.5-0.5,1.4-0.1,1.9l1.2,1.7
		c0.5,0.7,0.4,1.8-0.4,2.2l-6,3.9C47,51.9,46,51.7,45.5,51L44.6,49.5z M36.2,38.9l-2.7-3.7c-0.5-0.7-0.4-1.8,0.4-2.2l6-3.9
		c0.7-0.5,1.7-0.3,2.2,0.4l0,0c0.8,1.2,2.8,0.7,2.9-0.8c0-0.2,0-0.5,0-0.8c0-4.5-2.6-7.8-7.5-7.8c-5.8,0-9.4,5.5-9.4,10.9
		c0,4.5,2.6,7.8,7.5,7.8C35.8,38.9,36,38.9,36.2,38.9z"/>
	<path class="st2" d="M60.6,35.8c0-2.1,0.3-4.4,0.9-6.5l5.1-19.1C66.8,9.5,67.5,9,68.2,9h10.5c1.1,0,1.8,1,1.5,2l-5.1,19.1
		c-0.3,1.2-0.5,2.2-0.5,3.2c0,3.4,1.9,5.1,5.5,5.1c1.7,0,3.2-0.6,4.4-1.7c1.2-1.2,2-2.8,2.9-5.9l5.5-20.6c0.2-0.7,0.8-1.2,1.5-1.2
		H105c1.1,0,1.8,1,1.5,2L100.6,33c-1.5,5.4-3.5,9.3-6.4,12.2c-3.8,3.8-9.6,5.3-16,5.3C66.7,50.4,60.6,45,60.6,35.8z"/>
	<path class="st2" d="M125,8.8h11.3c0.8,0,1.4,0.6,1.5,1.4l5.7,37.7c0.1,0.9-0.6,1.8-1.5,1.8h-11.2c-0.8,0-1.5-0.6-1.5-1.4l-0.4-2.7
		c-0.1-0.8-0.8-1.4-1.5-1.4h-12c-0.5,0-1,0.3-1.3,0.7l-2.6,4c-0.3,0.5-0.8,0.7-1.3,0.7H99.2c-1.2,0-2-1.4-1.3-2.5l25.8-37.7
		C124,9,124.4,8.8,125,8.8z M127.6,32.8l-0.4-3.7c-0.2-1.5-2.1-1.9-2.9-0.6l-2.4,3.7c-0.6,1.1,0.1,2.4,1.3,2.4h2.8
		C127,34.6,127.7,33.7,127.6,32.8z"/>
	<path class="st2" d="M155.6,20.5h-7.8c-1.1,0-1.8-1-1.5-2l2.2-8.3c0.2-0.7,0.8-1.2,1.5-1.2h34.2c1.1,0,1.8,1,1.5,2l-2.2,8.3
		c-0.2,0.7-0.8,1.2-1.5,1.2h-9.5c-0.7,0-1.4,0.5-1.5,1.2l-7.2,26.7c-0.2,0.7-0.8,1.2-1.5,1.2h-10.3c-1.1,0-1.8-1-1.5-2l6.7-25.1
		C157.4,21.5,156.6,20.5,155.6,20.5z"/>
	<path class="st2" d="M188.8,10.3c0.2-0.7,0.8-1.2,1.5-1.2H205c7.5,0,12.2,1.6,14.9,4.4c2.2,2.2,3.2,5.2,3.2,8.4
		c0,5.9-2.9,11-9.7,13.7c-0.8,0.3-1.2,1.2-0.9,2.1l4.1,9.8c0.4,1.1-0.4,2.2-1.5,2.2h-11.1c-0.6,0-1.2-0.4-1.5-1l-3.7-9.6
		c-0.2-0.6-0.8-1-1.5-1h-1.1c-0.7,0-1.4,0.5-1.5,1.2l-2.5,9.3c-0.2,0.7-0.8,1.2-1.5,1.2h-10.3c-1.1,0-1.8-1-1.5-2L188.8,10.3z
		 M202.4,28.4c4.5,0,6.9-2.1,6.9-4.7c0-0.8-0.3-1.6-0.9-2.1c-0.8-0.8-2.1-1.2-4-1.2h-3.6c-0.7,0-1.4,0.5-1.5,1.2l-1.3,4.8
		c-0.3,1,0.5,2,1.5,2H202.4z"/>
	<path class="st2" d="M224.3,32.1c0-12.6,10.3-23.8,23.8-23.8c11.9,0,20.2,8,20.2,18.3c0,12.6-10.3,23.8-23.8,23.8
		C232.5,50.4,224.3,42.4,224.3,32.1z M254.7,27.8c0-4.3-2.6-7.7-7.5-7.7c-5.7,0-9.3,5.5-9.3,10.7c0,4.3,2.6,7.7,7.5,7.7
		C251.1,38.5,254.7,32.9,254.7,27.8z"/>
</g>
</svg>
